<mxfile host="app.diagrams.net" agent="Mozilla/5.0 (Windows NT 10.0; Win64; x64) AppleWebKit/537.36 (KHTML, like Gecko) Chrome/133.0.0.0 Safari/537.36" version="26.0.16">
  <diagram name="PÃ¡gina-1" id="5uSXRkrSEQcdDxNRW716">
    <mxGraphModel grid="1" page="1" gridSize="10" guides="1" tooltips="1" connect="1" arrows="1" fold="1" pageScale="1" pageWidth="827" pageHeight="1169" math="0" shadow="0">
      <root>
        <mxCell id="0" />
        <mxCell id="1" parent="0" />
        <mxCell id="wem6DPyhbVV_-webyvLf-1" value="" style="rounded=0;whiteSpace=wrap;html=1;strokeWidth=3;strokeColor=#003300;" vertex="1" parent="1">
          <mxGeometry x="200" y="140" width="300" height="364.99" as="geometry" />
        </mxCell>
        <mxCell id="-0RfKXKXitzcc68bSVRE-5" value="" style="rounded=0;whiteSpace=wrap;html=1;" vertex="1" parent="1">
          <mxGeometry x="290" y="430" width="120" height="30" as="geometry" />
        </mxCell>
        <mxCell id="-0RfKXKXitzcc68bSVRE-6" value="" style="shape=mxgraph.cisco.computers_and_peripherals.macintosh;html=1;pointerEvents=1;dashed=0;fillColor=#036897;strokeColor=#ffffff;strokeWidth=2;verticalLabelPosition=bottom;verticalAlign=top;align=center;outlineConnect=0;direction=west;" vertex="1" parent="1">
          <mxGeometry x="310" y="438" width="22.27" height="14" as="geometry" />
        </mxCell>
        <mxCell id="-0RfKXKXitzcc68bSVRE-7" value="" style="shape=mxgraph.cisco.computers_and_peripherals.macintosh;html=1;pointerEvents=1;dashed=0;fillColor=#036897;strokeColor=#ffffff;strokeWidth=2;verticalLabelPosition=bottom;verticalAlign=top;align=center;outlineConnect=0;direction=west;" vertex="1" parent="1">
          <mxGeometry x="370" y="438" width="21.66" height="14" as="geometry" />
        </mxCell>
        <mxCell id="-0RfKXKXitzcc68bSVRE-9" value="" style="whiteSpace=wrap;html=1;aspect=fixed;" vertex="1" parent="1">
          <mxGeometry x="439.83" y="444.25" width="60" height="60" as="geometry" />
        </mxCell>
        <mxCell id="-0RfKXKXitzcc68bSVRE-11" value="" style="html=1;verticalLabelPosition=bottom;align=center;labelBackgroundColor=#ffffff;verticalAlign=top;strokeWidth=2;strokeColor=#0080F0;shadow=0;dashed=0;shape=mxgraph.ios7.icons.printer;direction=west;" vertex="1" parent="1">
          <mxGeometry x="340.88" y="436.5" width="18.24" height="15.5" as="geometry" />
        </mxCell>
        <mxCell id="-0RfKXKXitzcc68bSVRE-12" value="" style="sketch=0;pointerEvents=1;shadow=0;dashed=0;html=1;strokeColor=none;fillColor=#505050;labelPosition=center;verticalLabelPosition=bottom;verticalAlign=top;outlineConnect=0;align=center;shape=mxgraph.office.devices.tv;" vertex="1" parent="1">
          <mxGeometry x="449.83" y="444.25" width="19.67" height="15" as="geometry" />
        </mxCell>
        <mxCell id="-0RfKXKXitzcc68bSVRE-14" value="" style="verticalLabelPosition=bottom;html=1;verticalAlign=top;align=center;shape=mxgraph.floorplan.doorLeft;aspect=fixed;direction=north;" vertex="1" parent="1">
          <mxGeometry x="439.83" y="476.25" width="10.63" height="10" as="geometry" />
        </mxCell>
        <mxCell id="-0RfKXKXitzcc68bSVRE-17" value="" style="verticalLabelPosition=bottom;html=1;verticalAlign=top;align=center;shape=mxgraph.floorplan.chair;direction=south;" vertex="1" parent="1">
          <mxGeometry x="483.33" y="491.24" width="16.5" height="13.01" as="geometry" />
        </mxCell>
        <mxCell id="-0RfKXKXitzcc68bSVRE-18" value="" style="verticalLabelPosition=bottom;html=1;verticalAlign=top;align=center;shape=mxgraph.floorplan.chair;direction=south;" vertex="1" parent="1">
          <mxGeometry x="483.33" y="474.74" width="16.5" height="13.01" as="geometry" />
        </mxCell>
        <mxCell id="-0RfKXKXitzcc68bSVRE-19" value="" style="verticalLabelPosition=bottom;html=1;verticalAlign=top;align=center;shape=mxgraph.floorplan.chair;direction=south;" vertex="1" parent="1">
          <mxGeometry x="483.33" y="459.25" width="16.5" height="13.01" as="geometry" />
        </mxCell>
        <mxCell id="-0RfKXKXitzcc68bSVRE-20" value="" style="whiteSpace=wrap;html=1;aspect=fixed;" vertex="1" parent="1">
          <mxGeometry x="439.83" y="384.25" width="60" height="60" as="geometry" />
        </mxCell>
        <mxCell id="-0RfKXKXitzcc68bSVRE-21" value="" style="verticalLabelPosition=bottom;html=1;verticalAlign=top;align=center;shape=mxgraph.floorplan.doorLeft;aspect=fixed;direction=north;" vertex="1" parent="1">
          <mxGeometry x="439.83" y="426.25" width="12.75" height="12" as="geometry" />
        </mxCell>
        <mxCell id="-0RfKXKXitzcc68bSVRE-22" value="" style="endArrow=none;html=1;rounded=0;entryX=1;entryY=0.5;entryDx=0;entryDy=0;exitX=0;exitY=0.5;exitDx=0;exitDy=0;" edge="1" parent="1" source="-0RfKXKXitzcc68bSVRE-20" target="-0RfKXKXitzcc68bSVRE-20">
          <mxGeometry width="50" height="50" relative="1" as="geometry">
            <mxPoint x="310" y="430" as="sourcePoint" />
            <mxPoint x="360" y="380" as="targetPoint" />
            <Array as="points" />
          </mxGeometry>
        </mxCell>
        <mxCell id="-0RfKXKXitzcc68bSVRE-23" value="" style="verticalLabelPosition=bottom;html=1;verticalAlign=top;align=center;shape=mxgraph.floorplan.doorLeft;aspect=fixed;rotation=-90;" vertex="1" parent="1">
          <mxGeometry x="440.36" y="394.01" width="10.1" height="10.74" as="geometry" />
        </mxCell>
        <mxCell id="-0RfKXKXitzcc68bSVRE-24" value="" style="verticalLabelPosition=bottom;html=1;verticalAlign=top;align=center;shape=mxgraph.floorplan.toilet;rotation=90;" vertex="1" parent="1">
          <mxGeometry x="486.58" y="412.85" width="10" height="13.4" as="geometry" />
        </mxCell>
        <mxCell id="-0RfKXKXitzcc68bSVRE-25" value="" style="verticalLabelPosition=bottom;html=1;verticalAlign=top;align=center;shape=mxgraph.floorplan.toilet;rotation=90;" vertex="1" parent="1">
          <mxGeometry x="486.58" y="384.25" width="10" height="13.4" as="geometry" />
        </mxCell>
        <mxCell id="-0RfKXKXitzcc68bSVRE-26" value="" style="verticalLabelPosition=bottom;html=1;verticalAlign=top;align=center;shape=mxgraph.floorplan.sink_1;" vertex="1" parent="1">
          <mxGeometry x="461.26" y="436.25" width="9.14" height="8" as="geometry" />
        </mxCell>
        <mxCell id="-0RfKXKXitzcc68bSVRE-27" value="" style="verticalLabelPosition=bottom;html=1;verticalAlign=top;align=center;shape=mxgraph.floorplan.sink_1;" vertex="1" parent="1">
          <mxGeometry x="460.36" y="404.85" width="9.14" height="8" as="geometry" />
        </mxCell>
        <mxCell id="DzXP_Ua7cI7ZSnPJatgl-1" value="" style="whiteSpace=wrap;html=1;aspect=fixed;" vertex="1" parent="1">
          <mxGeometry x="200" y="388.13" width="50" height="50" as="geometry" />
        </mxCell>
        <mxCell id="DzXP_Ua7cI7ZSnPJatgl-2" value="" style="whiteSpace=wrap;html=1;aspect=fixed;" vertex="1" parent="1">
          <mxGeometry x="200" y="338.13" width="50" height="50" as="geometry" />
        </mxCell>
        <mxCell id="DzXP_Ua7cI7ZSnPJatgl-3" value="" style="whiteSpace=wrap;html=1;aspect=fixed;" vertex="1" parent="1">
          <mxGeometry x="200" y="288.13" width="50" height="50" as="geometry" />
        </mxCell>
        <mxCell id="DzXP_Ua7cI7ZSnPJatgl-5" value="" style="whiteSpace=wrap;html=1;aspect=fixed;" vertex="1" parent="1">
          <mxGeometry x="200" y="238.13" width="50" height="50" as="geometry" />
        </mxCell>
        <mxCell id="DzXP_Ua7cI7ZSnPJatgl-6" value="" style="whiteSpace=wrap;html=1;aspect=fixed;" vertex="1" parent="1">
          <mxGeometry x="200" y="190" width="50" height="50" as="geometry" />
        </mxCell>
        <mxCell id="DzXP_Ua7cI7ZSnPJatgl-7" value="" style="whiteSpace=wrap;html=1;aspect=fixed;" vertex="1" parent="1">
          <mxGeometry x="200" y="140" width="50" height="50" as="geometry" />
        </mxCell>
        <mxCell id="DzXP_Ua7cI7ZSnPJatgl-24" value="" style="shape=mxgraph.cisco.computers_and_peripherals.sun_workstation;html=1;pointerEvents=1;dashed=0;fillColor=#036897;strokeColor=#ffffff;strokeWidth=2;verticalLabelPosition=bottom;verticalAlign=top;align=center;outlineConnect=0;rotation=-182;" vertex="1" parent="1">
          <mxGeometry x="200" y="150" width="12.13" height="9.56" as="geometry" />
        </mxCell>
        <mxCell id="DzXP_Ua7cI7ZSnPJatgl-25" value="" style="shape=mxgraph.cisco.computers_and_peripherals.sun_workstation;html=1;pointerEvents=1;dashed=0;fillColor=#036897;strokeColor=#ffffff;strokeWidth=2;verticalLabelPosition=bottom;verticalAlign=top;align=center;outlineConnect=0;rotation=-182;" vertex="1" parent="1">
          <mxGeometry x="200" y="200" width="12.13" height="9.56" as="geometry" />
        </mxCell>
        <mxCell id="DzXP_Ua7cI7ZSnPJatgl-26" value="" style="shape=mxgraph.cisco.computers_and_peripherals.sun_workstation;html=1;pointerEvents=1;dashed=0;fillColor=#036897;strokeColor=#ffffff;strokeWidth=2;verticalLabelPosition=bottom;verticalAlign=top;align=center;outlineConnect=0;rotation=-182;" vertex="1" parent="1">
          <mxGeometry x="200" y="250" width="12.13" height="9.56" as="geometry" />
        </mxCell>
        <mxCell id="DzXP_Ua7cI7ZSnPJatgl-27" value="" style="shape=mxgraph.cisco.computers_and_peripherals.sun_workstation;html=1;pointerEvents=1;dashed=0;fillColor=#036897;strokeColor=#ffffff;strokeWidth=2;verticalLabelPosition=bottom;verticalAlign=top;align=center;outlineConnect=0;rotation=-182;" vertex="1" parent="1">
          <mxGeometry x="200" y="300" width="12.13" height="9.56" as="geometry" />
        </mxCell>
        <mxCell id="DzXP_Ua7cI7ZSnPJatgl-28" value="" style="shape=mxgraph.cisco.computers_and_peripherals.sun_workstation;html=1;pointerEvents=1;dashed=0;fillColor=#036897;strokeColor=#ffffff;strokeWidth=2;verticalLabelPosition=bottom;verticalAlign=top;align=center;outlineConnect=0;rotation=-182;" vertex="1" parent="1">
          <mxGeometry x="200" y="350" width="12.13" height="9.56" as="geometry" />
        </mxCell>
        <mxCell id="DzXP_Ua7cI7ZSnPJatgl-29" value="" style="shape=mxgraph.cisco.computers_and_peripherals.sun_workstation;html=1;pointerEvents=1;dashed=0;fillColor=#036897;strokeColor=#ffffff;strokeWidth=2;verticalLabelPosition=bottom;verticalAlign=top;align=center;outlineConnect=0;rotation=-182;" vertex="1" parent="1">
          <mxGeometry x="200" y="398" width="12.13" height="9.56" as="geometry" />
        </mxCell>
        <mxCell id="DzXP_Ua7cI7ZSnPJatgl-30" value="" style="verticalLabelPosition=bottom;html=1;verticalAlign=top;align=center;shape=mxgraph.floorplan.office_chair;rotation=-180;" vertex="1" parent="1">
          <mxGeometry x="205.53" y="423.51" width="8.73" height="9.39" as="geometry" />
        </mxCell>
        <mxCell id="DzXP_Ua7cI7ZSnPJatgl-31" value="" style="verticalLabelPosition=bottom;html=1;verticalAlign=top;align=center;shape=mxgraph.floorplan.office_chair;rotation=-180;" vertex="1" parent="1">
          <mxGeometry x="205.53" y="370" width="8.73" height="9.39" as="geometry" />
        </mxCell>
        <mxCell id="DzXP_Ua7cI7ZSnPJatgl-32" value="" style="verticalLabelPosition=bottom;html=1;verticalAlign=top;align=center;shape=mxgraph.floorplan.office_chair;rotation=-180;" vertex="1" parent="1">
          <mxGeometry x="205.53" y="317.8" width="8.73" height="9.39" as="geometry" />
        </mxCell>
        <mxCell id="DzXP_Ua7cI7ZSnPJatgl-33" value="" style="verticalLabelPosition=bottom;html=1;verticalAlign=top;align=center;shape=mxgraph.floorplan.office_chair;rotation=-180;" vertex="1" parent="1">
          <mxGeometry x="205.53" y="270" width="8.73" height="9.39" as="geometry" />
        </mxCell>
        <mxCell id="DzXP_Ua7cI7ZSnPJatgl-34" value="" style="verticalLabelPosition=bottom;html=1;verticalAlign=top;align=center;shape=mxgraph.floorplan.office_chair;rotation=-180;" vertex="1" parent="1">
          <mxGeometry x="205.53" y="220.61" width="8.73" height="9.39" as="geometry" />
        </mxCell>
        <mxCell id="DzXP_Ua7cI7ZSnPJatgl-35" value="" style="verticalLabelPosition=bottom;html=1;verticalAlign=top;align=center;shape=mxgraph.floorplan.office_chair;rotation=-180;" vertex="1" parent="1">
          <mxGeometry x="205.53" y="170" width="8.73" height="9.39" as="geometry" />
        </mxCell>
        <mxCell id="6JLqiwfwAIq5XTY_rabI-16" value="" style="verticalLabelPosition=bottom;html=1;verticalAlign=top;align=center;shape=mxgraph.floorplan.doorDouble;aspect=fixed;direction=west;" vertex="1" parent="1">
          <mxGeometry x="332.27" y="487.75" width="35.29" height="18.75" as="geometry" />
        </mxCell>
        <mxCell id="6JLqiwfwAIq5XTY_rabI-17" value="" style="verticalLabelPosition=bottom;html=1;verticalAlign=top;align=center;shape=mxgraph.floorplan.office_chair;" vertex="1" parent="1">
          <mxGeometry x="376.96" y="410" width="14.7" height="16.25" as="geometry" />
        </mxCell>
        <mxCell id="6JLqiwfwAIq5XTY_rabI-18" value="" style="verticalLabelPosition=bottom;html=1;verticalAlign=top;align=center;shape=mxgraph.floorplan.office_chair;" vertex="1" parent="1">
          <mxGeometry x="310" y="410" width="14.7" height="16.25" as="geometry" />
        </mxCell>
        <mxCell id="6JLqiwfwAIq5XTY_rabI-20" value="" style="rounded=0;whiteSpace=wrap;html=1;strokeWidth=3;strokeColor=#003300;" vertex="1" parent="1">
          <mxGeometry x="500" y="185.01" width="210.62" height="256.25" as="geometry" />
        </mxCell>
        <mxCell id="6JLqiwfwAIq5XTY_rabI-21" value="" style="whiteSpace=wrap;html=1;aspect=fixed;" vertex="1" parent="1">
          <mxGeometry x="630.62" y="185.01" width="80" height="80" as="geometry" />
        </mxCell>
        <mxCell id="6JLqiwfwAIq5XTY_rabI-22" value="" style="whiteSpace=wrap;html=1;aspect=fixed;" vertex="1" parent="1">
          <mxGeometry x="690.62" y="185.01" width="20" height="20" as="geometry" />
        </mxCell>
        <mxCell id="6JLqiwfwAIq5XTY_rabI-25" value="" style="rounded=0;whiteSpace=wrap;html=1;direction=south;" vertex="1" parent="1">
          <mxGeometry x="630" y="265.01" width="80.62" height="174.99" as="geometry" />
        </mxCell>
        <mxCell id="6JLqiwfwAIq5XTY_rabI-26" value="" style="verticalLabelPosition=bottom;html=1;verticalAlign=top;align=center;shape=mxgraph.floorplan.doorDouble;aspect=fixed;rotation=-90;" vertex="1" parent="1">
          <mxGeometry x="486.58" y="279.56" width="56.47" height="30" as="geometry" />
        </mxCell>
        <mxCell id="6JLqiwfwAIq5XTY_rabI-27" value="" style="verticalLabelPosition=bottom;html=1;verticalAlign=top;align=center;shape=mxgraph.floorplan.doorLeft;aspect=fixed;rotation=-90;" vertex="1" parent="1">
          <mxGeometry x="631.21" y="240.31000000000003" width="19.24" height="20.44" as="geometry" />
        </mxCell>
        <mxCell id="6JLqiwfwAIq5XTY_rabI-28" value="" style="verticalLabelPosition=bottom;html=1;verticalAlign=top;align=center;shape=mxgraph.floorplan.doorRight;aspect=fixed;rotation=-90;" vertex="1" parent="1">
          <mxGeometry x="631.21" y="270" width="39.41" height="41.87" as="geometry" />
        </mxCell>
        <mxCell id="6JLqiwfwAIq5XTY_rabI-29" value="" style="html=1;verticalLabelPosition=bottom;align=center;labelBackgroundColor=#ffffff;verticalAlign=top;strokeWidth=2;strokeColor=#0080F0;shadow=0;dashed=0;shape=mxgraph.ios7.icons.locked;" vertex="1" parent="1">
          <mxGeometry x="658.62" y="210.31" width="24" height="30" as="geometry" />
        </mxCell>
        <mxCell id="6JLqiwfwAIq5XTY_rabI-30" value="" style="verticalLabelPosition=bottom;html=1;verticalAlign=top;align=center;shape=mxgraph.floorplan.office_chair;direction=north;" vertex="1" parent="1">
          <mxGeometry x="650.45" y="341.5" width="9.14" height="8.5" as="geometry" />
        </mxCell>
        <mxCell id="6JLqiwfwAIq5XTY_rabI-31" value="" style="verticalLabelPosition=bottom;html=1;verticalAlign=top;align=center;shape=mxgraph.floorplan.office_chair;direction=south;" vertex="1" parent="1">
          <mxGeometry x="690.62" y="359.56" width="9.14" height="8.5" as="geometry" />
        </mxCell>
        <mxCell id="6JLqiwfwAIq5XTY_rabI-32" value="" style="verticalLabelPosition=bottom;html=1;verticalAlign=top;align=center;shape=mxgraph.floorplan.office_chair;direction=south;" vertex="1" parent="1">
          <mxGeometry x="690.62" y="379.63" width="9.14" height="8.5" as="geometry" />
        </mxCell>
        <mxCell id="6JLqiwfwAIq5XTY_rabI-33" value="" style="verticalLabelPosition=bottom;html=1;verticalAlign=top;align=center;shape=mxgraph.floorplan.office_chair;direction=south;" vertex="1" parent="1">
          <mxGeometry x="690.62" y="399.06" width="9.14" height="8.5" as="geometry" />
        </mxCell>
        <mxCell id="6JLqiwfwAIq5XTY_rabI-35" value="" style="verticalLabelPosition=bottom;html=1;verticalAlign=top;align=center;shape=mxgraph.floorplan.office_chair;direction=north;" vertex="1" parent="1">
          <mxGeometry x="650.45" y="359.56" width="9.14" height="8.5" as="geometry" />
        </mxCell>
        <mxCell id="6JLqiwfwAIq5XTY_rabI-36" value="" style="verticalLabelPosition=bottom;html=1;verticalAlign=top;align=center;shape=mxgraph.floorplan.office_chair;direction=south;" vertex="1" parent="1">
          <mxGeometry x="690.62" y="341.5" width="9.14" height="8.5" as="geometry" />
        </mxCell>
        <mxCell id="6JLqiwfwAIq5XTY_rabI-37" value="" style="verticalLabelPosition=bottom;html=1;verticalAlign=top;align=center;shape=mxgraph.floorplan.office_chair;direction=north;" vertex="1" parent="1">
          <mxGeometry x="650.45" y="379.39" width="9.14" height="8.5" as="geometry" />
        </mxCell>
        <mxCell id="6JLqiwfwAIq5XTY_rabI-38" value="" style="verticalLabelPosition=bottom;html=1;verticalAlign=top;align=center;shape=mxgraph.floorplan.office_chair;direction=north;" vertex="1" parent="1">
          <mxGeometry x="650.45" y="404.34999999999997" width="9.14" height="8.5" as="geometry" />
        </mxCell>
        <mxCell id="6JLqiwfwAIq5XTY_rabI-39" value="" style="rounded=0;whiteSpace=wrap;html=1;direction=south;" vertex="1" parent="1">
          <mxGeometry x="659.59" y="329.69" width="31.38" height="90" as="geometry" />
        </mxCell>
        <mxCell id="6JLqiwfwAIq5XTY_rabI-40" value="" style="whiteSpace=wrap;html=1;aspect=fixed;" vertex="1" parent="1">
          <mxGeometry x="390" y="140.61" width="110" height="110" as="geometry" />
        </mxCell>
        <mxCell id="6JLqiwfwAIq5XTY_rabI-41" value="" style="verticalLabelPosition=bottom;html=1;verticalAlign=top;align=center;shape=mxgraph.floorplan.bed_single;" vertex="1" parent="1">
          <mxGeometry x="455.83" y="177.01" width="20" height="36" as="geometry" />
        </mxCell>
        <mxCell id="6JLqiwfwAIq5XTY_rabI-42" value="" style="shape=mxgraph.cisco.computers_and_peripherals.macintosh;html=1;pointerEvents=1;dashed=0;fillColor=#036897;strokeColor=#ffffff;strokeWidth=2;verticalLabelPosition=bottom;verticalAlign=top;align=center;outlineConnect=0;direction=west;" vertex="1" parent="1">
          <mxGeometry x="390" y="144.78" width="30.94" height="20" as="geometry" />
        </mxCell>
        <mxCell id="6JLqiwfwAIq5XTY_rabI-43" value="" style="verticalLabelPosition=bottom;html=1;verticalAlign=top;align=center;shape=mxgraph.floorplan.doorLeft;aspect=fixed;direction=north;" vertex="1" parent="1">
          <mxGeometry x="390" y="217.5" width="23.91" height="22.5" as="geometry" />
        </mxCell>
        <mxCell id="6JLqiwfwAIq5XTY_rabI-45" value="" style="endArrow=none;html=1;rounded=0;entryX=0.353;entryY=0.004;entryDx=0;entryDy=0;entryPerimeter=0;" edge="1" parent="1" target="6JLqiwfwAIq5XTY_rabI-40">
          <mxGeometry width="50" height="50" relative="1" as="geometry">
            <mxPoint x="390.35999999999996" y="190" as="sourcePoint" />
            <mxPoint x="440.35999999999996" y="140" as="targetPoint" />
            <Array as="points">
              <mxPoint x="428.7" y="189.99" />
            </Array>
          </mxGeometry>
        </mxCell>
        <mxCell id="6JLqiwfwAIq5XTY_rabI-46" value="" style="verticalLabelPosition=bottom;html=1;verticalAlign=top;align=center;shape=mxgraph.floorplan.doorRight;aspect=fixed;direction=west;" vertex="1" parent="1">
          <mxGeometry x="407.39" y="177.11" width="12.5" height="13.28" as="geometry" />
        </mxCell>
        <mxCell id="ugwWZGAb4BL41v3qV0gN-2" value="" style="rounded=0;whiteSpace=wrap;html=1;" vertex="1" parent="1">
          <mxGeometry x="500" y="381" width="130" height="60" as="geometry" />
        </mxCell>
        <mxCell id="ugwWZGAb4BL41v3qV0gN-3" value="" style="verticalLabelPosition=bottom;html=1;verticalAlign=top;align=center;shape=mxgraph.floorplan.doorRight;aspect=fixed;" vertex="1" parent="1">
          <mxGeometry x="590.31" y="381" width="30" height="31.88" as="geometry" />
        </mxCell>
        <mxCell id="ugwWZGAb4BL41v3qV0gN-4" value="" style="shape=mxgraph.cisco.computers_and_peripherals.macintosh;html=1;pointerEvents=1;dashed=0;fillColor=#036897;strokeColor=#ffffff;strokeWidth=2;verticalLabelPosition=bottom;verticalAlign=top;align=center;outlineConnect=0;rotation=-90;" vertex="1" parent="1">
          <mxGeometry x="500.89" y="385.55" width="20.9" height="13.51" as="geometry" />
        </mxCell>
        <mxCell id="ugwWZGAb4BL41v3qV0gN-5" value="" style="html=1;verticalLabelPosition=bottom;align=center;labelBackgroundColor=#ffffff;verticalAlign=top;strokeWidth=2;strokeColor=#0080F0;shadow=0;dashed=0;shape=mxgraph.ios7.icons.printer;" vertex="1" parent="1">
          <mxGeometry x="525.26" y="387.89" width="9.27" height="7.88" as="geometry" />
        </mxCell>
        <mxCell id="ugwWZGAb4BL41v3qV0gN-6" value="" style="ellipse;whiteSpace=wrap;html=1;aspect=fixed;" vertex="1" parent="1">
          <mxGeometry x="466.7" y="470" width="8.51" height="8.51" as="geometry" />
        </mxCell>
        <mxCell id="ugwWZGAb4BL41v3qV0gN-7" value="" style="verticalLabelPosition=bottom;html=1;verticalAlign=top;align=center;shape=mxgraph.floorplan.chair;" vertex="1" parent="1">
          <mxGeometry x="520.3399999999999" y="192.31" width="14.19" height="18" as="geometry" />
        </mxCell>
        <mxCell id="ugwWZGAb4BL41v3qV0gN-8" value="" style="verticalLabelPosition=bottom;html=1;verticalAlign=top;align=center;shape=mxgraph.floorplan.chair;direction=north;" vertex="1" parent="1">
          <mxGeometry x="502.335" y="215.815" width="18" height="14.19" as="geometry" />
        </mxCell>
        <mxCell id="ugwWZGAb4BL41v3qV0gN-9" value="" style="verticalLabelPosition=bottom;html=1;verticalAlign=top;align=center;shape=mxgraph.floorplan.chair;direction=west;" vertex="1" parent="1">
          <mxGeometry x="520.3399999999999" y="233.91" width="14.19" height="18" as="geometry" />
        </mxCell>
        <mxCell id="WVTKC2OQGIutiM0HuJEx-1" value="P4" style="text;html=1;align=center;verticalAlign=middle;whiteSpace=wrap;rounded=0;fontSize=5;" vertex="1" parent="1">
          <mxGeometry x="468.14" y="470" width="5.64" height="6.25" as="geometry" />
        </mxCell>
        <mxCell id="WVTKC2OQGIutiM0HuJEx-2" value="" style="ellipse;whiteSpace=wrap;html=1;aspect=fixed;" vertex="1" parent="1">
          <mxGeometry x="502.34" y="395.77" width="10" height="10" as="geometry" />
        </mxCell>
        <mxCell id="WVTKC2OQGIutiM0HuJEx-3" value="" style="ellipse;whiteSpace=wrap;html=1;aspect=fixed;" vertex="1" parent="1">
          <mxGeometry x="290" y="440" width="10" height="10" as="geometry" />
        </mxCell>
        <mxCell id="WVTKC2OQGIutiM0HuJEx-6" value="" style="ellipse;whiteSpace=wrap;html=1;aspect=fixed;" vertex="1" parent="1">
          <mxGeometry x="212.13" y="395.77" width="10" height="10" as="geometry" />
        </mxCell>
        <mxCell id="WVTKC2OQGIutiM0HuJEx-7" value="" style="ellipse;whiteSpace=wrap;html=1;aspect=fixed;" vertex="1" parent="1">
          <mxGeometry x="214.26" y="341.5" width="10" height="10" as="geometry" />
        </mxCell>
        <mxCell id="WVTKC2OQGIutiM0HuJEx-8" value="" style="ellipse;whiteSpace=wrap;html=1;aspect=fixed;" vertex="1" parent="1">
          <mxGeometry x="214.26" y="290" width="10" height="10" as="geometry" />
        </mxCell>
        <mxCell id="WVTKC2OQGIutiM0HuJEx-9" value="" style="ellipse;whiteSpace=wrap;html=1;aspect=fixed;" vertex="1" parent="1">
          <mxGeometry x="214.26" y="245.53" width="10" height="10" as="geometry" />
        </mxCell>
        <mxCell id="WVTKC2OQGIutiM0HuJEx-10" value="" style="ellipse;whiteSpace=wrap;html=1;aspect=fixed;" vertex="1" parent="1">
          <mxGeometry x="214.26" y="196.31" width="10" height="10" as="geometry" />
        </mxCell>
        <mxCell id="WVTKC2OQGIutiM0HuJEx-11" value="" style="ellipse;whiteSpace=wrap;html=1;aspect=fixed;" vertex="1" parent="1">
          <mxGeometry x="214.26" y="149.56" width="10" height="10" as="geometry" />
        </mxCell>
        <mxCell id="WVTKC2OQGIutiM0HuJEx-12" value="" style="ellipse;whiteSpace=wrap;html=1;aspect=fixed;" vertex="1" parent="1">
          <mxGeometry x="419.89" y="149.56" width="10" height="10" as="geometry" />
        </mxCell>
        <mxCell id="WVTKC2OQGIutiM0HuJEx-13" value="" style="shape=mxgraph.cisco.computers_and_peripherals.macintosh;html=1;pointerEvents=1;dashed=0;fillColor=#036897;strokeColor=#ffffff;strokeWidth=2;verticalLabelPosition=bottom;verticalAlign=top;align=center;outlineConnect=0;rotation=-90;" vertex="1" parent="1">
          <mxGeometry x="500.89" y="416.49" width="20.9" height="13.51" as="geometry" />
        </mxCell>
        <mxCell id="WVTKC2OQGIutiM0HuJEx-14" value="" style="ellipse;whiteSpace=wrap;html=1;aspect=fixed;" vertex="1" parent="1">
          <mxGeometry x="502.34" y="410" width="10" height="10" as="geometry" />
        </mxCell>
        <mxCell id="WVTKC2OQGIutiM0HuJEx-15" value="" style="ellipse;whiteSpace=wrap;html=1;aspect=fixed;" vertex="1" parent="1">
          <mxGeometry x="391.65999999999997" y="439.25" width="10" height="10" as="geometry" />
        </mxCell>
        <mxCell id="WVTKC2OQGIutiM0HuJEx-16" value="" style="verticalLabelPosition=bottom;html=1;verticalAlign=top;align=center;shape=mxgraph.floorplan.doorLeft;aspect=fixed;direction=south;" vertex="1" parent="1">
          <mxGeometry x="232.47" y="420" width="17.53" height="16.5" as="geometry" />
        </mxCell>
        <mxCell id="WVTKC2OQGIutiM0HuJEx-17" value="" style="verticalLabelPosition=bottom;html=1;verticalAlign=top;align=center;shape=mxgraph.floorplan.doorLeft;aspect=fixed;direction=south;" vertex="1" parent="1">
          <mxGeometry x="232.47" y="366.44" width="17.53" height="16.5" as="geometry" />
        </mxCell>
        <mxCell id="WVTKC2OQGIutiM0HuJEx-18" value="" style="verticalLabelPosition=bottom;html=1;verticalAlign=top;align=center;shape=mxgraph.floorplan.doorLeft;aspect=fixed;direction=south;" vertex="1" parent="1">
          <mxGeometry x="232.47" y="313.19" width="17.53" height="16.5" as="geometry" />
        </mxCell>
        <mxCell id="WVTKC2OQGIutiM0HuJEx-19" value="" style="verticalLabelPosition=bottom;html=1;verticalAlign=top;align=center;shape=mxgraph.floorplan.doorLeft;aspect=fixed;direction=south;" vertex="1" parent="1">
          <mxGeometry x="232.47" y="266.44" width="17.53" height="16.5" as="geometry" />
        </mxCell>
        <mxCell id="WVTKC2OQGIutiM0HuJEx-20" value="" style="verticalLabelPosition=bottom;html=1;verticalAlign=top;align=center;shape=mxgraph.floorplan.doorLeft;aspect=fixed;direction=south;" vertex="1" parent="1">
          <mxGeometry x="232.47" y="217.06" width="17.53" height="16.5" as="geometry" />
        </mxCell>
        <mxCell id="WVTKC2OQGIutiM0HuJEx-21" value="" style="verticalLabelPosition=bottom;html=1;verticalAlign=top;align=center;shape=mxgraph.floorplan.doorLeft;aspect=fixed;direction=south;" vertex="1" parent="1">
          <mxGeometry x="232.47" y="164.78" width="17.53" height="16.5" as="geometry" />
        </mxCell>
        <mxCell id="WVTKC2OQGIutiM0HuJEx-24" value="" style="verticalLabelPosition=bottom;html=1;verticalAlign=top;align=center;shape=mxgraph.floorplan.chair;direction=south;" vertex="1" parent="1">
          <mxGeometry x="543.045" y="217.505" width="18" height="14.19" as="geometry" />
        </mxCell>
        <mxCell id="WVTKC2OQGIutiM0HuJEx-25" value="" style="ellipse;whiteSpace=wrap;html=1;aspect=fixed;" vertex="1" parent="1">
          <mxGeometry x="512.34" y="200.31" width="40" height="40" as="geometry" />
        </mxCell>
        <mxCell id="WVTKC2OQGIutiM0HuJEx-27" value="" style="verticalLabelPosition=bottom;html=1;verticalAlign=top;align=center;shape=mxgraph.floorplan.chair;direction=west;" vertex="1" parent="1">
          <mxGeometry x="520.3399999999999" y="354.13" width="14.19" height="18" as="geometry" />
        </mxCell>
        <mxCell id="WVTKC2OQGIutiM0HuJEx-28" value="" style="verticalLabelPosition=bottom;html=1;verticalAlign=top;align=center;shape=mxgraph.floorplan.chair;direction=north;" vertex="1" parent="1">
          <mxGeometry x="500.8949999999999" y="338.125" width="18" height="14.19" as="geometry" />
        </mxCell>
        <mxCell id="WVTKC2OQGIutiM0HuJEx-29" value="" style="verticalLabelPosition=bottom;html=1;verticalAlign=top;align=center;shape=mxgraph.floorplan.chair;direction=south;" vertex="1" parent="1">
          <mxGeometry x="534.525" y="338.125" width="18" height="14.19" as="geometry" />
        </mxCell>
        <mxCell id="WVTKC2OQGIutiM0HuJEx-30" value="" style="ellipse;whiteSpace=wrap;html=1;aspect=fixed;" vertex="1" parent="1">
          <mxGeometry x="512.34" y="331.5" width="30" height="30" as="geometry" />
        </mxCell>
        <mxCell id="WVTKC2OQGIutiM0HuJEx-31" value="" style="ellipse;whiteSpace=wrap;html=1;aspect=fixed;" vertex="1" parent="1">
          <mxGeometry x="345.12" y="449.25" width="14" height="14" as="geometry" />
        </mxCell>
        <mxCell id="WVTKC2OQGIutiM0HuJEx-32" value="" style="ellipse;whiteSpace=wrap;html=1;aspect=fixed;" vertex="1" parent="1">
          <mxGeometry x="532.3399999999999" y="388.13" width="10" height="10" as="geometry" />
        </mxCell>
        <mxCell id="WVTKC2OQGIutiM0HuJEx-37" value="P1" style="text;html=1;align=center;verticalAlign=middle;whiteSpace=wrap;rounded=0;fontSize=5;" vertex="1" parent="1">
          <mxGeometry x="393.84" y="441" width="5.64" height="6.25" as="geometry" />
        </mxCell>
        <mxCell id="WVTKC2OQGIutiM0HuJEx-38" value="P2" style="text;html=1;align=center;verticalAlign=middle;whiteSpace=wrap;rounded=0;fontSize=5;" vertex="1" parent="1">
          <mxGeometry x="349.29999999999995" y="452" width="5.64" height="6.25" as="geometry" />
        </mxCell>
        <mxCell id="WVTKC2OQGIutiM0HuJEx-39" value="P3" style="text;html=1;align=center;verticalAlign=middle;whiteSpace=wrap;rounded=0;fontSize=5;" vertex="1" parent="1">
          <mxGeometry x="292.17999999999995" y="441.87" width="5.64" height="6.25" as="geometry" />
        </mxCell>
        <mxCell id="WVTKC2OQGIutiM0HuJEx-40" value="P5" style="text;html=1;align=center;verticalAlign=middle;whiteSpace=wrap;rounded=0;fontSize=5;" vertex="1" parent="1">
          <mxGeometry x="214.25999999999993" y="396.26" width="5.64" height="6.25" as="geometry" />
        </mxCell>
        <mxCell id="WVTKC2OQGIutiM0HuJEx-41" value="P6" style="text;html=1;align=center;verticalAlign=middle;whiteSpace=wrap;rounded=0;fontSize=5;" vertex="1" parent="1">
          <mxGeometry x="216.48999999999992" y="342.1" width="5.64" height="6.25" as="geometry" />
        </mxCell>
        <mxCell id="WVTKC2OQGIutiM0HuJEx-42" value="P7" style="text;html=1;align=center;verticalAlign=middle;whiteSpace=wrap;rounded=0;fontSize=5;" vertex="1" parent="1">
          <mxGeometry x="216.4399999999999" y="291.43" width="5.64" height="6.25" as="geometry" />
        </mxCell>
        <mxCell id="WVTKC2OQGIutiM0HuJEx-43" value="P8" style="text;html=1;align=center;verticalAlign=middle;whiteSpace=wrap;rounded=0;fontSize=5;" vertex="1" parent="1">
          <mxGeometry x="216.48999999999992" y="245.53" width="5.64" height="6.25" as="geometry" />
        </mxCell>
        <mxCell id="WVTKC2OQGIutiM0HuJEx-44" value="P9" style="text;html=1;align=center;verticalAlign=middle;whiteSpace=wrap;rounded=0;fontSize=5;" vertex="1" parent="1">
          <mxGeometry x="216.4399999999999" y="198.17999999999998" width="5.64" height="6.25" as="geometry" />
        </mxCell>
        <mxCell id="WVTKC2OQGIutiM0HuJEx-45" value="P10" style="text;html=1;align=center;verticalAlign=middle;whiteSpace=wrap;rounded=0;fontSize=5;" vertex="1" parent="1">
          <mxGeometry x="216.4399999999999" y="150" width="5.64" height="6.25" as="geometry" />
        </mxCell>
        <mxCell id="WVTKC2OQGIutiM0HuJEx-46" value="P11" style="text;html=1;align=center;verticalAlign=middle;whiteSpace=wrap;rounded=0;fontSize=5;" vertex="1" parent="1">
          <mxGeometry x="422.06999999999994" y="150" width="5.64" height="6.25" as="geometry" />
        </mxCell>
        <mxCell id="WVTKC2OQGIutiM0HuJEx-47" value="P12" style="text;html=1;align=center;verticalAlign=middle;whiteSpace=wrap;rounded=0;fontSize=5;" vertex="1" parent="1">
          <mxGeometry x="534.53" y="388.7" width="5.64" height="6.25" as="geometry" />
        </mxCell>
        <mxCell id="WVTKC2OQGIutiM0HuJEx-48" value="P13" style="text;html=1;align=center;verticalAlign=middle;whiteSpace=wrap;rounded=0;fontSize=5;" vertex="1" parent="1">
          <mxGeometry x="504.52" y="396.26" width="5.64" height="6.25" as="geometry" />
        </mxCell>
        <mxCell id="WVTKC2OQGIutiM0HuJEx-49" value="P14" style="text;html=1;align=center;verticalAlign=middle;whiteSpace=wrap;rounded=0;fontSize=5;" vertex="1" parent="1">
          <mxGeometry x="504.52" y="411.13" width="5.64" height="6.25" as="geometry" />
        </mxCell>
      </root>
    </mxGraphModel>
  </diagram>
</mxfile>
